#!OML:ASF E:\emotionWalksFemale\Project 1\Capture day 1\Session 1\Female1.ASF
:FULLY-SPECIFIED
:DEGREES
209
root 8.96353 12.9673 22.1188 208.835 -2.79016 179.567
lowerback 23.8901 1.39667 0.228488
upperback -2.26154 1.76259 -0.641725
thorax -16.1268 0.690452 -1.52449
lowerneck -5.71513 -2.72273 -6.39182
upperneck -24.819 -5.51218 7.38632
head -6.23577 -3.99413 3.81002
rclavicle -3.4191e-014 -4.37326e-015
rhumerus -0.290664 4.41013 -79.3604
rradius 28.6527
rwrist 36.0305
rhand -2.58796 -57.6578
rfingers 7.12502
rthumb 23.1094 -86.2919
lclavicle -3.4191e-014 -4.37326e-015
lhumerus -8.7402 2.42988 79.3233
lradius 32.4356
lwrist -18.3594
lhand -9.29319 -46.5871
lfingers 7.12502
lthumb 16.6642 -17.2824
rfemur -66.8057 3.96248 26.4465
rtibia 83.2339
rfoot -34.4918 -25.4102
rtoes 6.71153
lfemur -69.3653 -3.54405 -23.1463
ltibia 81.779
lfoot -36.6484 2.99759
ltoes -23.5984
210
root 8.98263 13.0034 22.0782 208.118 -3.5367 179.404
lowerback 24.1447 1.32003 0.44522
upperback -2.18671 1.73595 -0.536616
thorax -16.183 0.662589 -1.52185
lowerneck -5.52188 -2.80345 -6.574
upperneck -24.7933 -5.62895 7.19369
head -6.25531 -4.00194 3.78391
rclavicle -5.96354e-016 -1.59028e-015
rhumerus 3.19689 5.5686 -79.1178
rradius 29.3915
rwrist 34.5091
rhand -4.18661 -56.6964
rfingers 7.12502
rthumb 21.5748 -85.5146
lclavicle -5.96354e-016 -1.59028e-015
lhumerus -5.87259 -0.0679389 79.2435
lradius 34.0326
lwrist -17.2273
lhand -9.71531 -47.6998
lfingers 7.12502
lthumb 16.2578 -18.3614
rfemur -65.5265 3.42177 26.7463
rtibia 82.9544
rfoot -34.763 -25.5114
rtoes 7.38328
lfemur -68.2728 -4.14296 -22.8864
ltibia 81.5625
lfoot -36.3626 3.30112
ltoes -25.5883
211
root 9 13.0248 22.0476 207.861 -3.61676 179.482
lowerback 23.892 1.51647 0.399166
upperback -2.26324 1.99924 -0.48459
thorax -16.1244 0.790481 -1.52726
lowerneck -5.38328 -2.87156 -6.70547
upperneck -24.6303 -5.71076 6.97621
head -6.22556 -3.98657 3.73174
rclavicle 2.14687e-014 4.77083e-015
rhumerus 6.55152 7.28119 -78.4455
rradius 30.3807
rwrist 32.2299
rhand -5.30835 -56.1847
rfingers 7.12502
rthumb 20.4971 -85.1228
lclavicle 2.14687e-014 4.77083e-015
lhumerus -3.43014 -3.45212 78.5238
lradius 36.3356
lwrist -15.4846
lhand -9.97805 -48.3
lfingers 7.12502
lthumb 16.0048 -18.9411
rfemur -64.9714 3.46645 26.9868
rtibia 82.6152
rfoot -34.6699 -25.6814
rtoes 7.76745
lfemur -67.8017 -4.13842 -22.676
ltibia 81.382
lfoot -36.0496 3.05182
ltoes -25.1903
212
root 9.01812 13.0672 22.0096 207.594 -3.86882 179.555
lowerback 23.5417 1.64196 0.505769
upperback -2.35162 2.2042 -0.493895
thorax -16.0155 0.876667 -1.66545
lowerneck -5.1302 -2.93352 -6.74639
upperneck -24.4459 -5.75472 6.836
head -6.20828 -3.95862 3.69045
rclavicle -1.39149e-015 1.59028e-015
rhumerus 9.84123 9.05056 -77.4239
rradius 31.964
rwrist 29.1286
rhand -4.84509 -57.0491
rfingers 7.12502
rthumb 20.9422 -85.9386
lclavicle -1.39149e-015 1.59028e-015
lhumerus -0.835297 -7.23953 76.9965
lradius 38.5126
lwrist -13.7816
lhand -11.0523 -50.5307
lfingers 7.12502
lthumb 14.9701 -21.0918
rfemur -64.2463 3.2822 27.3548
rtibia 82.0597
rfoot -34.3609 -25.8876
rtoes 8.67733
lfemur -67.1275 -4.25259 -22.3884
ltibia 80.949
lfoot -35.8466 2.63433
ltoes -23.7581
213
root 9.03939 13.1216 21.9634 207.255 -4.25699 179.612
lowerback 23.189 1.71406 0.644162
upperback -2.34116 2.34134 -0.498212
thorax -15.7843 0.931204 -1.78598
lowerneck -5.04957 -2.94692 -6.78247
upperneck -24.3611 -5.75434 6.73589
head -6.19714 -3.92867 3.66112
rclavicle -1.11319e-014 0
rhumerus 13.3504 10.3419 -76.1186
rradius 33.7396
rwrist 26.7489
rhand -3.99563 -58.0509
rfingers 7.12502
rthumb 21.7582 -86.848
lclavicle -1.11319e-014 0
lhumerus 2.09068 -10.4339 75.0509
lradius 40.6687
lwrist -12.8285
lhand -11.8 -51.9703
lfingers 7.12502
lthumb 14.2497 -22.4792
rfemur -63.2448 3.09565 27.7079
rtibia 81.325
rfoot -34.0793 -26.1372
rtoes 9.98536
lfemur -66.2413 -4.38921 -22.1019
ltibia 80.365
lfoot -35.6778 2.21801
ltoes -22.3288
